<svg width="521" height="280" viewBox="0 0 521 280" fill="none" xmlns="http://www.w3.org/2000/svg">
<path d="M145 206.52C145 246.561 112.541 279.02 72.5 279.02C32.4594 279.02 0 246.561 0 206.52C0 166.48 32.4594 134.02 72.5 134.02C112.541 134.02 145 166.48 145 206.52Z" fill="white"/>
<path d="M474 134.02C474 184.278 420.722 225.02 355 225.02C289.278 225.02 236 184.278 236 134.02C236 83.7624 289.278 43.0203 355 43.0203C420.722 43.0203 474 83.7624 474 134.02Z" fill="white"/>
<path d="M295.708 50.0934C314.94 96.5256 281.309 154.555 220.59 179.706C159.871 204.856 95.0571 187.604 75.8242 141.172C56.5913 94.7398 90.2226 36.7103 150.942 11.5597C211.661 -13.591 276.475 3.66111 295.708 50.0934Z" fill="white"/>
<path d="M521 206.52C521 246.561 488.541 279.02 448.5 279.02C408.459 279.02 376 246.561 376 206.52C376 166.48 408.459 134.02 448.5 134.02C488.541 134.02 521 166.48 521 206.52Z" fill="white"/>
<path d="M73 134.02H449V279.02H73V134.02Z" fill="white"/>
</svg>
